# xmcd
#
# Track frame offsets:
#	150
#	15991
#	34358
#	60915
#	78584
#	98026
#	115379
#	128577
#	143262
#	153992
#	171523
#
# Disc length: 2610 seconds
#
# Revision: 0
# Processed by: cddbd v1.4PL0 Copyright (c) Steve Scherf et al.
# Submitted via: dBpowerAMP V4.0
#
DISCID=800a300b
DTITLE=Jeff Pitchell And Texas Flood - Fat Cigars
DYEAR=1997
DGENRE=Blues
TTITLE0=Eye For An Eye
TTITLE1=Fat Cigars
TTITLE2=One Hand
TTITLE3=Whole Lotta Lovin
TTITLE4=To Know You Is To Love You
TTITLE5=Angel In Black
TTITLE6=My Babe
TTITLE7=Drinkin Good Wine
TTITLE8=Dinnerbell
TTITLE9=Blue Guitars
TTITLE10=Good To Be Home
EXTD=
EXTT0=
EXTT1=
EXTT2=
EXTT3=
EXTT4=
EXTT5=
EXTT6=
EXTT7=
EXTT8=
EXTT9=
EXTT10=
PLAYORDER=
